# This file is brought to you by Roblox Corporation
# Generated by Roblox Studio

mtllib 9.mtl

g Pcube201

v 474.841 1.2127 30.1776 
v 474.907 1.30335 30.1704 
v 474.93 1.2127 30.1776 
v 474.864 1.30335 30.1704 
v 474.891 1.20743 30.8075 
v 474.891 1.51934 30.8583 
v 474.88 1.20743 30.8075 
v 474.88 1.51934 30.8583 
v 474.88 1.54291 30.8198 
v 474.891 1.54291 30.8198 
v 474.891 1.56649 30.8579 
v 474.88 1.56649 30.8579 
v 474.891 1.59007 30.8576 
v 474.88 1.59007 30.8576 
v 474.897 1.59966 30.7824 
v 474.875 1.59966 30.7824 
v 474.88 1.59007 30.8576 
v 474.891 1.59007 30.8576 
v 474.925 1.50949 30.433 
v 474.846 1.50949 30.433 
v 474.858 1.56387 30.6008 
v 474.851 1.41572 30.2948 
v 474.913 1.56387 30.6008 
v 474.875 1.59966 30.7824 
v 474.897 1.59966 30.7824 
v 474.92 1.41572 30.2948 
v 474.907 1.30335 30.1704 
v 474.864 1.30335 30.1704 
v 474.875 1.59966 30.7824 
v 474.88 1.56649 30.8579 
v 474.88 1.59007 30.8576 
v 474.88 1.54291 30.8198 
v 474.858 1.56387 30.6008 
v 474.88 1.51934 30.8583 
v 474.846 1.50949 30.433 
v 474.88 1.20743 30.8075 
v 474.851 1.41572 30.2948 
v 474.864 1.30335 30.1704 
v 474.841 1.2127 30.1776 
v 474.907 1.30335 30.1704 
v 474.891 1.20743 30.8075 
v 474.93 1.2127 30.1776 
v 474.92 1.41572 30.2948 
v 474.925 1.50949 30.433 
v 474.891 1.51934 30.8583 
v 474.913 1.56387 30.6008 
v 474.891 1.54291 30.8198 
v 474.897 1.59966 30.7824 
v 474.891 1.56649 30.8579 
v 474.891 1.59007 30.8576 

vn 0 -0.0787402 -1 
vn 0 -0.0787402 -1 
vn 0 -0.0787402 -1 
vn 0 -0.0787402 -1 
vn 0 -0.15748 0.984252 
vn 0 -0.0393701 1 
vn 0 -0.15748 0.984252 
vn 0 -0.0393701 1 
vn 0 0.015748 1 
vn 0 0.015748 1 
vn 0 -0.629921 0.779528 
vn 0 -0.629921 0.779528 
vn 0 0.00787402 1 
vn 0 0.00787402 1 
vn 0 0.992126 0.125984 
vn 0 0.992126 0.125984 
vn 0 0.992126 0.125984 
vn 0 0.992126 0.125984 
vn 0 0.88189 -0.464567 
vn 0 0.88189 -0.464567 
vn 0 0.952756 -0.291339 
vn 0 0.80315 -0.590551 
vn 0 0.952756 -0.291339 
vn 0 0.984252 -0.188976 
vn 0 0.984252 -0.188976 
vn 0 0.80315 -0.590551 
vn 0 0.740157 -0.669291 
vn 0 0.740157 -0.669291 
vn -1 -0.00787402 0.0551181 
vn -1 -0.00787402 0.0551181 
vn -1 -0.00787402 0.0551181 
vn -1 -0.00787402 0.0551181 
vn -1 -0.00787402 0.0551181 
vn -1 -0.00787402 0.0551181 
vn -1 -0.00787402 0.0551181 
vn -1 -0.00787402 0.0551181 
vn -1 -0.00787402 0.0551181 
vn -1 -0.00787402 0.0551181 
vn -1 -0.00787402 0.0551181 
vn 1 -0.00787402 0.0551181 
vn 1 -0.00787402 0.0551181 
vn 1 -0.00787402 0.0551181 
vn 1 -0.00787402 0.0551181 
vn 1 -0.00787402 0.0551181 
vn 1 -0.00787402 0.0551181 
vn 1 -0.00787402 0.0551181 
vn 1 -0.00787402 0.0551181 
vn 1 -0.00787402 0.0551181 
vn 1 -0.00787402 0.0551181 
vn 1 -0.00787402 0.0551181 

vt 0.636906 0 
vt 0.64412 0.0444762 
vt 0.636906 0.0601015 
vt 0.64412 0.0156254 
vt 0.763181 0.136494 
vt 0.662763 0.136187 
vt 0.763181 0.106767 
vt 0.662763 0.107074 
vt 0.655174 0.107097 
vt 0.655174 0.136164 
vt 0.647584 0.13614 
vt 0.647584 0.10712 
vt 0.639993 0.136117 
vt 0.639993 0.107144 
vt 0.804874 0.269294 
vt 0.804874 0.247914 
vt 0.809637 0.253471 
vt 0.809637 0.263738 
vt 0.782757 0.29673 
vt 0.782757 0.220478 
vt 0.793375 0.23197 
vt 0.774005 0.225301 
vt 0.793375 0.285238 
vt 0.804874 0.247914 
vt 0.804874 0.269294 
vt 0.774005 0.291907 
vt 0.766133 0.27928 
vt 0.766133 0.237928 
vt 0.636906 0.0914633 
vt 0.647584 0.10712 
vt 0.639993 0.107144 
vt 0.655174 0.107097 
vt 0.648427 0.0464677 
vt 0.662763 0.107074 
vt 0.665934 0.0140364 
vt 0.763181 0.106767 
vt 0.696123 0.027648 
vt 0.732298 0.0632805 
vt 0.761482 7.70092e-05 
vt 0.732298 0.17998 
vt 0.763181 0.136494 
vt 0.761482 0.243184 
vt 0.696123 0.215613 
vt 0.665934 0.229224 
vt 0.662763 0.136187 
vt 0.648427 0.196793 
vt 0.655174 0.136164 
vt 0.636906 0.151797 
vt 0.647584 0.13614 
vt 0.639993 0.136117 

usemtl Pcube201Mtl

f 1/1/1 2/2/2 3/3/3 
f 2/2/2 1/1/1 4/4/4 
f 5/5/5 6/6/6 7/7/7 
f 7/7/7 6/6/6 8/8/8 
f 8/8/8 6/6/6 9/9/9 
f 10/10/10 9/9/9 6/6/6 
f 9/9/9 10/10/10 11/11/11 
f 9/9/9 11/11/11 12/12/12 
f 12/12/12 11/11/11 13/13/13 
f 12/12/12 13/13/13 14/14/14 
f 15/15/15 16/16/16 17/17/17 
f 15/15/15 17/17/17 18/18/18 
f 19/19/19 20/20/20 21/21/21 
f 19/19/19 22/22/22 20/20/20 
f 19/19/19 21/21/21 23/23/23 
f 24/24/24 23/23/23 21/21/21 
f 23/23/23 24/24/24 25/25/25 
f 22/22/22 19/19/19 26/26/26 
f 27/27/27 22/22/22 26/26/26 
f 22/22/22 27/27/27 28/28/28 
f 29/29/29 30/30/30 31/31/31 
f 30/30/30 29/29/29 32/32/32 
f 33/33/33 32/32/32 29/29/29 
f 33/33/33 34/34/34 32/32/32 
f 35/35/35 34/34/34 33/33/33 
f 34/34/34 35/35/35 36/36/36 
f 37/37/37 36/36/36 35/35/35 
f 36/36/36 37/37/37 38/38/38 
f 36/36/36 38/38/38 39/39/39 
f 40/40/40 41/41/41 42/42/42 
f 43/43/43 41/41/41 40/40/40 
f 44/44/44 41/41/41 43/43/43 
f 44/44/44 45/45/45 41/41/41 
f 45/45/45 44/44/44 46/46/46 
f 45/45/45 46/46/46 47/47/47 
f 46/46/46 48/48/48 47/47/47 
f 49/49/49 47/47/47 48/48/48 
f 49/49/49 48/48/48 50/50/50 

g Pcube191

v 473.691 0.204869 30.5871 
v 473.881 0.399965 30.6476 
v 473.881 0.399965 30.6022 
v 473.691 0.204869 30.7146 
v 476.081 0.204869 30.5871 
v 475.89 0.399965 30.6476 
v 476.081 0.204869 30.7146 
v 475.89 0.399965 30.6022 
v 474.121 0.320106 30.281 
v 473.881 0.399965 30.6022 
v 474.115 0.358446 30.3626 
v 473.691 0.204869 30.5871 
v 476.081 0.204869 30.5871 
v 475.657 0.358446 30.3626 
v 475.89 0.399965 30.6022 
v 475.651 0.320106 30.281 
v 473.881 0.399965 30.6476 
v 474.47 0.557671 30.6476 
v 473.881 0.399965 30.6022 
v 474.47 0.557671 30.6022 
v 475.89 0.399965 30.6022 
v 475.302 0.557671 30.6022 
v 475.302 0.557671 30.6476 
v 475.89 0.399965 30.6476 
v 474.115 0.358446 30.3626 
v 474.59 0.445813 30.281 
v 474.121 0.320106 30.281 
v 474.496 0.460567 30.3626 
v 475.276 0.460567 30.3626 
v 475.657 0.358446 30.3626 
v 475.651 0.320106 30.281 
v 475.181 0.445813 30.281 
v 473.881 0.399965 30.6022 
v 474.496 0.460567 30.3626 
v 474.115 0.358446 30.3626 
v 474.47 0.557671 30.6022 
v 475.302 0.557671 30.6022 
v 475.89 0.399965 30.6022 
v 475.657 0.358446 30.3626 
v 475.276 0.460567 30.3626 
v 473.691 0.204869 30.7146 
v 474.59 0.445813 30.7146 
v 473.881 0.399965 30.6476 
v 474.47 0.557671 30.6476 
v 475.181 0.445813 30.7146 
v 476.081 0.204869 30.7146 
v 475.89 0.399965 30.6476 
v 475.302 0.557671 30.6476 
v 476.081 0.204869 30.5871 
v 475.813 0.236586 30.6489 
v 475.813 0.236586 30.6022 
v 476.081 0.204869 30.7146 
v 473.691 0.204869 30.5871 
v 473.959 0.236586 30.6022 
v 473.959 0.236585 30.6489 
v 473.691 0.204869 30.7146 
v 475.813 0.236586 30.6022 
v 475.48 0.325795 30.3626 
v 475.651 0.320106 30.281 
v 476.081 0.204869 30.5871 
v 473.691 0.204869 30.5871 
v 474.121 0.320106 30.281 
v 473.959 0.236586 30.6022 
v 474.292 0.325795 30.3626 
v 475.181 0.445813 30.281 
v 475.651 0.320106 30.281 
v 475.48 0.325795 30.3626 
v 475.256 0.385852 30.3626 
v 474.121 0.320106 30.281 
v 474.516 0.385852 30.3626 
v 474.292 0.325795 30.3626 
v 474.59 0.445813 30.281 
v 475.181 0.445813 30.7146 
v 475.813 0.236586 30.6489 
v 476.081 0.204869 30.7146 
v 475.256 0.385852 30.6489 
v 473.959 0.236585 30.6489 
v 474.59 0.445813 30.7146 
v 473.691 0.204869 30.7146 
v 474.516 0.385852 30.6489 
v 475.181 0.445813 30.5871 
v 475.276 0.460567 30.3626 
v 475.181 0.445813 30.281 
v 475.302 0.557671 30.6022 
v 475.48 0.325795 30.3626 
v 475.256 0.385852 30.6022 
v 475.256 0.385852 30.3626 
v 475.813 0.236586 30.6022 
v 475.256 0.385852 30.6022 
v 475.813 0.236586 30.6022 
v 475.813 0.236586 30.6489 
v 475.256 0.385852 30.6489 
v 474.516 0.385852 30.6022 
v 473.959 0.236586 30.6022 
v 474.292 0.325795 30.3626 
v 474.516 0.385852 30.3626 
v 473.959 0.236586 30.6022 
v 474.516 0.385852 30.6489 
v 473.959 0.236585 30.6489 
v 474.516 0.385852 30.6022 
v 475.181 0.445813 30.5871 
v 475.302 0.557671 30.6476 
v 475.302 0.557671 30.6022 
v 475.181 0.445813 30.7146 
v 474.47 0.557671 30.6476 
v 474.59 0.445813 30.5871 
v 474.47 0.557671 30.6022 
v 474.59 0.445813 30.7146 
v 474.59 0.445813 30.5871 
v 474.59 0.445813 30.281 
v 474.47 0.557671 30.6022 
v 475.181 0.445813 30.281 
v 475.256 0.385852 30.3626 
v 475.181 0.445813 30.5871 
v 475.256 0.385852 30.6022 
v 475.181 0.445813 30.5871 
v 475.256 0.385852 30.6489 
v 475.181 0.445813 30.7146 
v 475.256 0.385852 30.6022 
v 474.59 0.445813 30.281 
v 474.59 0.445813 30.5871 
v 474.516 0.385852 30.3626 
v 474.516 0.385852 30.6022 
v 474.59 0.445813 30.5871 
v 474.516 0.385852 30.6489 
v 474.516 0.385852 30.6022 
v 474.59 0.445813 30.7146 

vn -0.716535 0.700787 0 
vn -0.716535 0.700787 0 
vn -0.716535 0.700787 0 
vn -0.716535 0.700787 0 
vn 0.716535 0.700787 0 
vn 0.716535 0.700787 0 
vn 0.716535 0.700787 0 
vn 0.716535 0.700787 0 
vn -0.527559 0.645669 -0.551181 
vn -0.527559 0.645669 -0.551181 
vn -0.527559 0.645669 -0.551181 
vn -0.527559 0.645669 -0.551181 
vn 0.527559 0.645669 -0.551181 
vn 0.527559 0.645669 -0.551181 
vn 0.527559 0.645669 -0.551181 
vn 0.527559 0.645669 -0.551181 
vn -0.259843 0.968504 0 
vn -0.259843 0.968504 0 
vn -0.259843 0.968504 0 
vn -0.259843 0.968504 0 
vn 0.259843 0.968504 0 
vn 0.259843 0.968504 0 
vn 0.259843 0.968504 0 
vn 0.259843 0.968504 0 
vn -0.23622 0.874016 -0.425197 
vn -0.23622 0.874016 -0.425197 
vn -0.23622 0.874016 -0.425197 
vn -0.23622 0.874016 -0.425197 
vn 0.23622 0.874016 -0.425197 
vn 0.23622 0.874016 -0.425197 
vn 0.23622 0.874016 -0.425197 
vn 0.23622 0.874016 -0.425197 
vn -0.23622 0.889764 -0.385827 
vn -0.23622 0.889764 -0.385827 
vn -0.23622 0.889764 -0.385827 
vn -0.23622 0.889764 -0.385827 
vn 0.23622 0.889764 -0.385827 
vn 0.23622 0.889764 -0.385827 
vn 0.23622 0.889764 -0.385827 
vn 0.23622 0.889764 -0.385827 
vn -0.110236 0.417323 0.897638 
vn -0.110236 0.417323 0.897638 
vn -0.110236 0.417323 0.897638 
vn -0.110236 0.417323 0.897638 
vn 0.110236 0.417323 0.897638 
vn 0.110236 0.417323 0.897638 
vn 0.110236 0.417323 0.897638 
vn 0.110236 0.417323 0.897638 
vn -0.11811 -0.992126 0 
vn -0.11811 -0.992126 0 
vn -0.11811 -0.992126 0 
vn -0.11811 -0.992126 0 
vn 0.11811 -0.992126 0 
vn 0.11811 -0.992126 0 
vn 0.11811 -0.992126 0 
vn 0.11811 -0.992126 0 
vn -0.125984 -0.976378 -0.188976 
vn -0.125984 -0.976378 -0.188976 
vn -0.125984 -0.976378 -0.188976 
vn -0.125984 -0.976378 -0.188976 
vn 0.125984 -0.976378 -0.188976 
vn 0.125984 -0.976378 -0.188976 
vn 0.125984 -0.976378 -0.188976 
vn 0.125984 -0.976378 -0.188976 
vn -0.23622 -0.874016 -0.425197 
vn -0.23622 -0.874016 -0.425197 
vn -0.23622 -0.874016 -0.425197 
vn -0.23622 -0.874016 -0.425197 
vn 0.23622 -0.874016 -0.425197 
vn 0.23622 -0.874016 -0.425197 
vn 0.23622 -0.874016 -0.425197 
vn 0.23622 -0.874016 -0.425197 
vn -0.220472 -0.834646 0.503937 
vn -0.220472 -0.834646 0.503937 
vn -0.220472 -0.834646 0.503937 
vn -0.220472 -0.834646 0.503937 
vn 0.220472 -0.834646 0.503937 
vn 0.220472 -0.834646 0.503937 
vn 0.220472 -0.834646 0.503937 
vn 0.220472 -0.834646 0.503937 
vn -0.456693 0.88189 -0.133858 
vn -0.456693 0.88189 -0.133858 
vn -0.456693 0.88189 -0.133858 
vn -0.456693 0.88189 -0.133858 
vn -0.259843 -0.968504 0 
vn -0.259843 -0.968504 0 
vn -0.259843 -0.968504 0 
vn -0.259843 -0.968504 0 
vn -0.259843 -0.968504 0 
vn -0.259843 -0.968504 0 
vn -0.259843 -0.968504 0 
vn -0.259843 -0.968504 0 
vn 0.259843 -0.968504 0 
vn 0.259843 -0.968504 0 
vn 0.259843 -0.968504 0 
vn 0.259843 -0.968504 0 
vn 0.259843 -0.968504 0 
vn 0.259843 -0.968504 0 
vn 0.259843 -0.968504 0 
vn 0.259843 -0.968504 0 
vn -0.677165 0.732283 0 
vn -0.677165 0.732283 0 
vn -0.677165 0.732283 0 
vn -0.677165 0.732283 0 
vn 0.677165 0.732283 0 
vn 0.677165 0.732283 0 
vn 0.677165 0.732283 0 
vn 0.677165 0.732283 0 
vn 0.456693 0.88189 -0.133858 
vn 0.456693 0.88189 -0.133858 
vn 0.456693 0.88189 -0.133858 
vn -0.629921 -0.779528 0 
vn -0.629921 -0.779528 0 
vn -0.629921 -0.779528 0 
vn -0.629921 -0.779528 0 
vn -0.629921 -0.779528 0 
vn -0.629921 -0.779528 0 
vn -0.629921 -0.779528 0 
vn -0.629921 -0.779528 0 
vn 0.629921 -0.779528 0 
vn 0.629921 -0.779528 0 
vn 0.629921 -0.779528 0 
vn 0.629921 -0.779528 0 
vn 0.629921 -0.779528 0 
vn 0.629921 -0.779528 0 
vn 0.629921 -0.779528 0 
vn 0.629921 -0.779528 0 

vt 0.157776 0.654542 
vt 0.167065 0.805942 
vt 0.1601 0.805942 
vt 0.17736 0.654542 
vt 0.795081 0.0364932 
vt 0.781351 0.167561 
vt 0.766133 0.0364932 
vt 0.791647 0.167561 
vt 0.110766 0.796342 
vt 0.1601 0.805942 
vt 0.123301 0.818885 
vt 0.157776 0.654542 
vt 0.795081 0.0364932 
vt 0.846042 0.0729081 
vt 0.791647 0.167561 
vt 0.864571 0.0364932 
vt 0.167065 0.805942 
vt 0.167065 1 
vt 0.1601 0.805942 
vt 0.1601 1 
vt 0.97382 0.22299 
vt 0.973819 0.11006 
vt 0.986846 0.11006 
vt 0.986846 0.22299 
vt 0.123301 0.818885 
vt 0.110766 0.951025 
vt 0.110766 0.796342 
vt 0.123301 0.944546 
vt 0.885943 0.146251 
vt 0.82928 0.146251 
vt 0.828736 0.110552 
vt 0.898484 0.110552 
vt 0.1601 0.805942 
vt 0.123301 0.944546 
vt 0.123301 0.818885 
vt 0.1601 1 
vt 0.885943 0.239043 
vt 0.79844 0.239042 
vt 0.82928 0.146251 
vt 0.885943 0.146251 
vt 0.977276 0.703465 
vt 0.899975 0.416604 
vt 0.964496 0.556979 
vt 0.9139 0.369219 
vt 0.4056 0.749091 
vt 0.309222 0.749091 
vt 0.333476 0.656459 
vt 0.396559 0.656459 
vt 0.795081 0.0364932 
vt 0.781047 7.82013e-05 
vt 0.791647 7.82013e-05 
vt 0.766133 0.0364932 
vt 0.920907 7.80821e-05 
vt 0.918424 0.0681245 
vt 0.91076 0.0681245 
vt 0.899975 7.81417e-05 
vt 0.791647 7.82013e-05 
vt 0.846042 7.80821e-05 
vt 0.864571 0.0364932 
vt 0.795081 0.0364932 
vt 0.920907 7.80821e-05 
vt 0.971155 0.151643 
vt 0.918424 0.0681245 
vt 0.957757 0.185457 
vt 0.898484 0.110552 
vt 0.828736 0.110552 
vt 0.85262 0.0748527 
vt 0.885943 0.0748529 
vt 0.971155 0.151643 
vt 0.957757 0.264446 
vt 0.957757 0.185457 
vt 0.971155 0.316978 
vt 0.4056 0.749091 
vt 0.336852 0.774827 
vt 0.309222 0.749091 
vt 0.396559 0.774827 
vt 0.91076 0.0681245 
vt 0.899975 0.316978 
vt 0.899975 7.81417e-05 
vt 0.91076 0.264446 
vt 0.977915 0.0239909 
vt 0.94445 0.0479037 
vt 0.932282 0.0239909 
vt 0.98017 0.11006 
vt 0.488375 0.699464 
vt 0.419553 0.656459 
vt 0.488375 0.656459 
vt 0.419553 0.763345 
vt 0.419553 0.656459 
vt 0.419553 0.763345 
vt 0.406143 0.763345 
vt 0.406143 0.656459 
vt 0.918424 0.264446 
vt 0.918424 0.0681245 
vt 0.957757 0.185457 
vt 0.957757 0.264446 
vt 0.918424 0.0681245 
vt 0.91076 0.264446 
vt 0.91076 0.0681245 
vt 0.918424 0.264446 
vt 0.977915 0.0239909 
vt 0.986931 0.11006 
vt 0.98017 0.11006 
vt 0.996924 0.0239909 
vt 0.910979 0.369326 
vt 0.920907 0.316978 
vt 0.918424 0.369326 
vt 0.899975 0.316978 
vt 0.681594 0.223568 
vt 0.745344 0.223568 
vt 0.678443 0.289982 
vt 0.932282 0.0239909 
vt 0.94445 7.80821e-05 
vt 0.977915 0.0239909 
vt 0.98017 7.80821e-05 
vt 0.977915 0.0239909 
vt 0.98713 7.80821e-05 
vt 0.996924 0.0239909 
vt 0.98017 7.80821e-05 
vt 0.971155 0.316978 
vt 0.920907 0.316978 
vt 0.957757 0.264446 
vt 0.918424 0.264446 
vt 0.920907 0.316978 
vt 0.91076 0.264446 
vt 0.918424 0.264446 
vt 0.899975 0.316978 

usemtl Pcube201Mtl

f 51/51/51 52/52/52 53/53/53 
f 52/52/52 51/51/51 54/54/54 
f 55/55/55 56/56/56 57/57/57 
f 56/56/56 55/55/55 58/58/58 
f 59/59/59 60/60/60 61/61/61 
f 62/62/62 60/60/60 59/59/59 
f 63/63/63 64/64/64 65/65/65 
f 64/64/64 63/63/63 66/66/66 
f 67/67/67 68/68/68 69/69/69 
f 70/70/70 69/69/69 68/68/68 
f 71/71/71 72/72/72 73/73/73 
f 71/71/71 73/73/73 74/74/74 
f 75/75/75 76/76/76 77/77/77 
f 76/76/76 75/75/75 78/78/78 
f 79/79/79 80/80/80 81/81/81 
f 81/81/81 82/82/82 79/79/79 
f 83/83/83 84/84/84 85/85/85 
f 84/84/84 83/83/83 86/86/86 
f 87/87/87 88/88/88 89/89/89 
f 87/87/87 89/89/89 90/90/90 
f 91/91/91 92/92/92 93/93/93 
f 94/94/94 93/93/93 92/92/92 
f 95/95/95 96/96/96 97/97/97 
f 95/95/95 97/97/97 98/98/98 
f 99/99/99 100/100/100 101/101/101 
f 100/100/100 99/99/99 102/102/102 
f 103/103/103 104/104/104 105/105/105 
f 103/103/103 105/105/105 106/106/106 
f 107/107/107 108/108/108 109/109/109 
f 109/109/109 110/110/110 107/107/107 
f 111/111/111 112/112/112 113/113/113 
f 112/112/112 114/114/114 113/113/113 
f 115/115/115 116/116/116 117/117/117 
f 115/115/115 117/117/117 118/118/118 
f 119/119/119 120/120/120 121/121/121 
f 119/119/119 122/122/122 120/120/120 
f 123/123/123 124/124/124 125/125/125 
f 124/124/124 123/123/123 126/126/126 
f 127/127/127 128/128/128 129/129/129 
f 128/128/128 127/127/127 130/130/130 
f 131/131/131 132/132/132 133/133/133 
f 132/132/132 131/131/131 134/134/134 
f 135/135/135 136/136/136 137/137/137 
f 136/136/136 135/135/135 138/138/138 
f 139/139/139 140/140/140 141/141/141 
f 139/139/139 141/141/141 142/142/142 
f 143/143/143 144/144/144 145/145/145 
f 145/145/145 146/146/146 143/143/143 
f 147/147/147 148/148/148 149/149/149 
f 148/148/148 147/147/147 150/150/150 
f 151/151/151 152/152/152 153/153/153 
f 152/152/152 151/151/151 154/154/154 
f 155/155/155 156/156/156 157/157/157 
f 156/156/156 155/155/155 158/158/158 
f 159/159/159 160/160/160 161/161/161 
f 162/162/162 163/163/163 164/164/164 
f 163/163/163 165/165/165 164/164/164 
f 166/166/166 167/167/167 168/168/168 
f 167/167/167 166/166/166 169/169/169 
f 170/170/170 171/171/171 172/172/172 
f 172/172/172 171/171/171 173/173/173 
f 174/174/174 175/175/175 176/176/176 
f 175/175/175 174/174/174 177/177/177 

g Pcube181

v 474.286 1.21277 29.7549 
v 475.435 1.21277 29.7549 
v 475.435 0.0637277 29.7549 
v 474.286 0.0637277 29.7549 
v 475.435 0.0637277 31.291 
v 475.435 1.21277 31.291 
v 474.286 0.0637277 31.291 
v 474.286 1.21277 31.291 
v 475.499 0.0637277 29.8317 
v 475.499 0.0637277 30.5229 
v 475.435 -0.00010097 29.8317 
v 475.435 -0.00010097 30.5229 
v 475.435 0.0637277 29.7549 
v 475.499 0.0637277 31.2142 
v 475.435 -0.00010097 31.2142 
v 475.435 0.0637277 31.291 
v 475.435 1.21277 31.291 
v 475.499 1.21277 31.2142 
v 475.435 1.2766 31.2142 
v 475.499 1.15866 30.5229 
v 475.435 1.21824 30.5229 
v 475.499 1.21277 29.8317 
v 475.435 1.2766 29.8317 
v 475.435 1.21277 29.7549 
v 474.286 -0.00010097 29.8317 
v 474.286 -0.00010097 30.5229 
v 474.222 0.0637277 29.8317 
v 474.286 0.0637277 29.7549 
v 474.286 1.21277 29.7549 
v 474.222 1.21277 29.8317 
v 474.286 1.2766 29.8317 
v 474.222 1.15866 30.5229 
v 474.286 1.21824 30.5229 
v 474.222 0.0637277 30.5229 
v 474.286 -0.00010097 31.2142 
v 474.222 0.0637277 31.2142 
v 474.286 0.0637277 31.291 
v 474.222 1.21277 31.2142 
v 474.286 1.2766 31.2142 
v 474.286 1.21277 31.291 
v 475.435 -0.00010097 29.8317 
v 474.286 -0.00010097 29.8317 
v 475.435 0.0637277 29.7549 
v 474.286 0.0637277 29.7549 
v 475.435 -0.00010097 30.5229 
v 474.286 -0.00010097 30.5229 
v 475.435 -0.00010097 31.2142 
v 474.286 -0.00010097 31.2142 
v 474.286 0.0637277 31.291 
v 475.435 0.0637277 31.291 
v 475.435 1.21277 29.7549 
v 474.286 1.21277 29.7549 
v 475.435 1.2766 29.8317 
v 474.286 1.2766 29.8317 
v 474.286 1.21824 30.5229 
v 475.435 1.21824 30.5229 
v 474.286 1.2766 31.2142 
v 475.435 1.2766 31.2142 
v 475.435 1.21277 31.291 
v 474.286 1.21277 31.291 

vn -0.0629921 0.0629921 -1 
vn 0.0629921 0.0629921 -1 
vn 0.0629921 -0.0629921 -1 
vn -0.0629921 -0.0629921 -1 
vn 0.0629921 -0.0629921 1 
vn 0.0629921 0.0629921 1 
vn -0.0629921 -0.0629921 1 
vn -0.0629921 0.0629921 1 
vn 0.992126 -0.0472441 -0.0787402 
vn 1 -0.0551181 0 
vn 0.0472441 -0.992126 -0.0787402 
vn 0.0551181 -1 0 
vn 0.0629921 -0.0629921 -1 
vn 0.992126 -0.0472441 0.0787402 
vn 0.0472441 -0.992126 0.0787402 
vn 0.0629921 -0.0629921 1 
vn 0.0629921 0.0629921 1 
vn 0.992126 0.0551181 0.0787402 
vn 0.0472441 1 0.00787402 
vn 1 0.0472441 0 
vn 0.0551181 1 0 
vn 0.992126 0.0551181 -0.0787402 
vn 0.0472441 1 -0.00787402 
vn 0.0629921 0.0629921 -1 
vn -0.0472441 -0.992126 -0.0787402 
vn -0.0551181 -1 0 
vn -0.992126 -0.0472441 -0.0787402 
vn -0.0629921 -0.0629921 -1 
vn -0.0629921 0.0629921 -1 
vn -0.992126 0.0551181 -0.0787402 
vn -0.0472441 1 -0.00787402 
vn -1 0.0472441 0 
vn -0.0551181 1 0 
vn -1 -0.0551181 0 
vn -0.0472441 -0.992126 0.0787402 
vn -0.992126 -0.0472441 0.0787402 
vn -0.0629921 -0.0629921 1 
vn -0.992126 0.0551181 0.0787402 
vn -0.0472441 1 0.00787402 
vn -0.0629921 0.0629921 1 
vn 0.0472441 -0.992126 -0.0787402 
vn -0.0472441 -0.992126 -0.0787402 
vn 0.0629921 -0.0629921 -1 
vn -0.0629921 -0.0629921 -1 
vn 0.0551181 -1 0 
vn -0.0551181 -1 0 
vn 0.0472441 -0.992126 0.0787402 
vn -0.0472441 -0.992126 0.0787402 
vn -0.0629921 -0.0629921 1 
vn 0.0629921 -0.0629921 1 
vn 0.0629921 0.0629921 -1 
vn -0.0629921 0.0629921 -1 
vn 0.0472441 1 -0.00787402 
vn -0.0472441 1 -0.00787402 
vn -0.0551181 1 0 
vn 0.0551181 1 0 
vn -0.0472441 1 0.00787402 
vn 0.0472441 1 0.00787402 
vn 0.0629921 0.0629921 1 
vn -0.0629921 0.0629921 1 

vt 0.897419 0.328523 
vt 0.897419 0.593652 
vt 0.63229 0.593652 
vt 0.63229 0.328523 
vt 0.897419 0.85878 
vt 0.63229 0.85878 
vt 0.897419 0.593652 
vt 0.63229 0.593652 
vt 0.317506 0.351 
vt 0.167108 0.351 
vt 0.317506 0.334291 
vt 0.167108 0.334291 
vt 0.334215 0.351 
vt 0.0167091 0.351 
vt 0.0167091 0.334291 
vt 0 0.351 
vt 0 0.651797 
vt 0.0167091 0.651797 
vt 0.0167091 0.668506 
vt 0.167108 0.637632 
vt 0.167108 0.653229 
vt 0.317506 0.651797 
vt 0.317506 0.668506 
vt 0.334215 0.651797 
vt 0.016709 7.80821e-05 
vt 0.167108 7.80821e-05 
vt 0.016709 0.0167872 
vt 0 0.0167872 
vt 0 0.317584 
vt 0.016709 0.317584 
vt 0.016709 0.334293 
vt 0.167108 0.303419 
vt 0.167108 0.319017 
vt 0.167108 0.0167872 
vt 0.317506 7.80821e-05 
vt 0.317506 0.0167872 
vt 0.334215 0.0167872 
vt 0.317506 0.317584 
vt 0.317506 0.334293 
vt 0.334215 0.317584 
vt 0.336914 0.640064 
vt 0.632059 0.640064 
vt 0.336914 0.656459 
vt 0.632059 0.656459 
vt 0.336914 0.492491 
vt 0.632059 0.492491 
vt 0.336914 0.344918 
vt 0.632059 0.344918 
vt 0.632059 0.328523 
vt 0.336914 0.328523 
vt 0.336914 7.80821e-05 
vt 0.632518 7.80821e-05 
vt 0.336914 0.0164986 
vt 0.632518 0.0164986 
vt 0.632518 0.164301 
vt 0.336914 0.164301 
vt 0.632518 0.312103 
vt 0.336914 0.312103 
vt 0.336914 0.328523 
vt 0.632518 0.328523 

usemtl Pcube201Mtl

f 178/178/178 179/179/179 180/180/180 
f 178/178/178 180/180/180 181/181/181 
f 182/182/182 183/183/183 184/184/184 
f 184/184/184 183/183/183 185/185/185 
f 186/186/186 187/187/187 188/188/188 
f 188/188/188 187/187/187 189/189/189 
f 188/188/188 190/190/190 186/186/186 
f 187/187/187 191/191/191 189/189/189 
f 189/189/189 191/191/191 192/192/192 
f 191/191/191 193/193/193 192/192/192 
f 191/191/191 194/194/194 193/193/193 
f 194/194/194 191/191/191 195/195/195 
f 195/195/195 196/196/196 194/194/194 
f 197/197/197 191/191/191 187/187/187 
f 191/191/191 197/197/197 195/195/195 
f 197/197/197 196/196/196 195/195/195 
f 186/186/186 197/197/197 187/187/187 
f 196/196/196 197/197/197 198/198/198 
f 186/186/186 199/199/199 197/197/197 
f 199/199/199 198/198/198 197/197/197 
f 199/199/199 186/186/186 190/190/190 
f 198/198/198 199/199/199 200/200/200 
f 190/190/190 201/201/201 199/199/199 
f 199/199/199 201/201/201 200/200/200 
f 202/202/202 203/203/203 204/204/204 
f 204/204/204 205/205/205 202/202/202 
f 206/206/206 205/205/205 204/204/204 
f 204/204/204 207/207/207 206/206/206 
f 208/208/208 206/206/206 207/207/207 
f 209/209/209 208/208/208 207/207/207 
f 207/207/207 204/204/204 209/209/209 
f 208/208/208 209/209/209 210/210/210 
f 204/204/204 203/203/203 211/211/211 
f 211/211/211 209/209/209 204/204/204 
f 203/203/203 212/212/212 211/211/211 
f 211/211/211 212/212/212 213/213/213 
f 209/209/209 211/211/211 213/213/213 
f 212/212/212 214/214/214 213/213/213 
f 215/215/215 210/210/210 209/209/209 
f 209/209/209 213/213/213 215/215/215 
f 214/214/214 215/215/215 213/213/213 
f 210/210/210 215/215/215 216/216/216 
f 215/215/215 214/214/214 217/217/217 
f 217/217/217 216/216/216 215/215/215 
f 218/218/218 219/219/219 220/220/220 
f 221/221/221 220/220/220 219/219/219 
f 219/219/219 218/218/218 222/222/222 
f 219/219/219 222/222/222 223/223/223 
f 223/223/223 222/222/222 224/224/224 
f 223/223/223 224/224/224 225/225/225 
f 225/225/225 224/224/224 226/226/226 
f 227/227/227 226/226/226 224/224/224 
f 228/228/228 229/229/229 230/230/230 
f 231/231/231 230/230/230 229/229/229 
f 230/230/230 231/231/231 232/232/232 
f 230/230/230 232/232/232 233/233/233 
f 233/233/233 232/232/232 234/234/234 
f 233/233/233 234/234/234 235/235/235 
f 235/235/235 234/234/234 236/236/236 
f 237/237/237 236/236/236 234/234/234 

