# This file is brought to you by Roblox Corporation
# Generated by Roblox Studio

mtllib 10.mtl

g Pet1

v 454.916 1.59775 -13.7497 
v 455.772 1.60354 -13.7465 
v 455.772 1.48237 -14.5023 
v 454.93 1.4793 -14.7073 
v 456.615 1.48703 -14.2836 
v 456.629 1.5555 -13.7434 
v 456.629 1.52317 -15.4601 
v 455.772 1.5054 -15.46 
v 454.915 1.52428 -15.46 
v 454.915 -0.00296736 -13.7453 
v 455.772 -0.0302073 -13.7453 
v 454.882 0.782677 -13.7453 
v 455.772 1.60354 -13.7465 
v 454.916 1.59775 -13.7497 
v 456.656 0.782677 -13.7453 
v 456.629 1.5555 -13.7434 
v 456.629 -0.00296736 -13.7453 
v 454.882 0.782677 -13.7453 
v 454.923 -0.0413305 -14.2373 
v 454.915 -0.00296736 -13.7453 
v 454.93 0.73266 -14.7082 
v 454.93 -0.0529091 -14.7082 
v 454.922 -0.0143148 -15.1278 
v 454.93 1.4793 -14.7073 
v 454.916 1.59775 -13.7497 
v 454.941 0.804292 -15.4599 
v 454.915 0.082526 -15.4599 
v 454.915 1.52428 -15.46 
v 456.622 -0.0407943 -14.0194 
v 456.656 0.782677 -13.7453 
v 456.629 -0.00296736 -13.7453 
v 456.615 0.733785 -14.2817 
v 456.615 -0.0518583 -14.2817 
v 456.622 -0.0143148 -14.9794 
v 456.615 1.48703 -14.2836 
v 456.629 1.5555 -13.7434 
v 456.603 0.804292 -15.4599 
v 456.629 0.082526 -15.4599 
v 456.629 1.52317 -15.4601 
v 454.929 0.462765 -14.9815 
v 454.463 0.354868 -14.7235 
v 454.929 0.743628 -14.753 
v 454.52 0.252702 -14.888 
v 454.353 0.160463 -14.6652 
v 454.463 0.354868 -14.4678 
v 454.929 0.743628 -14.4383 
v 454.353 0.160463 -14.5261 
v 454.929 0.462765 -14.2098 
v 454.52 0.252702 -14.3034 
v 456.604 0.462765 -14.9815 
v 457.07 0.354868 -14.7235 
v 457.014 0.252702 -14.888 
v 456.604 0.743628 -14.753 
v 457.18 0.160463 -14.6652 
v 457.07 0.354868 -14.4678 
v 456.604 0.743628 -14.4383 
v 457.18 0.160463 -14.5261 
v 456.604 0.462765 -14.2098 
v 457.014 0.252702 -14.3034 
v 455.772 0.0594432 -15.4599 
v 454.941 0.804292 -15.4599 
v 455.772 1.5054 -15.46 
v 454.915 0.082526 -15.4599 
v 454.915 1.52428 -15.46 
v 456.603 0.804292 -15.4599 
v 456.629 0.082526 -15.4599 
v 456.629 1.52317 -15.4601 
v 455.512 1.21841 -15.6513 
v 455.452 1.10894 -15.4559 
v 455.452 1.50282 -15.4546 
v 455.579 1.39659 -15.781 
v 455.539 1.56808 -15.6615 
v 455.767 1.75997 -15.7646 
v 456.082 1.50282 -15.4546 
v 456.082 1.10894 -15.4559 
v 456.022 1.21841 -15.6513 
v 455.955 1.39659 -15.781 
v 455.995 1.56808 -15.6615 
v 455.767 1.75997 -15.7646 
v 455.879 -0.25997 -14.3695 
v 456.273 -0.25997 -14.8249 
v 456.313 -0.25997 -14.4121 
v 455.838 -0.25997 -14.7823 
v 455.238 -0.25997 -14.4061 
v 455.709 -0.25997 -14.7812 
v 455.673 -0.25997 -14.368 
v 455.274 -0.25997 -14.8193 
v 455.995 1.56808 -15.6615 
v 455.767 1.75997 -15.7646 
v 455.539 1.56808 -15.6615 
v 455.452 1.50282 -15.4546 
v 456.082 1.50282 -15.4546 
v 455.772 -0.0432925 -14.1314 
v 456.622 -0.0407943 -14.0194 
v 455.772 -0.0302073 -13.7453 
v 456.629 -0.00296736 -13.7453 
v 454.915 -0.00296736 -13.7453 
v 456.615 -0.0518583 -14.2817 
v 454.923 -0.0413305 -14.2373 
v 455.772 -0.0567476 -14.5009 
v 456.622 -0.0143148 -14.9794 
v 454.93 -0.0529091 -14.7082 
v 455.772 -0.0143148 -15.0536 
v 456.629 0.082526 -15.4599 
v 454.922 -0.0143148 -15.1278 
v 455.772 0.0594432 -15.4599 
v 454.915 0.082526 -15.4599 
v 456.235 0.0533944 -14.7815 
v 456.268 0.0533944 -14.4474 
v 456.276 -0.112409 -14.4411 
v 456.242 -0.112409 -14.7893 
v 455.275 -0.112409 -14.4354 
v 455.312 0.0533944 -14.7763 
v 455.305 -0.112409 -14.784 
v 455.283 0.0533944 -14.4418 
v 456.242 -0.112409 -14.7893 
v 456.276 -0.112409 -14.4411 
v 456.313 -0.25997 -14.4121 
v 456.273 -0.25997 -14.8249 
v 455.238 -0.25997 -14.4061 
v 455.305 -0.112409 -14.784 
v 455.274 -0.25997 -14.8193 
v 455.275 -0.112409 -14.4354 
v 456.268 0.0533944 -14.4474 
v 455.916 0.0533944 -14.4129 
v 455.909 -0.112409 -14.4051 
v 456.276 -0.112409 -14.4411 
v 455.283 0.0533944 -14.4418 
v 455.642 -0.112409 -14.4033 
v 455.635 0.0533944 -14.411 
v 455.275 -0.112409 -14.4354 
v 455.452 1.10894 -15.4559 
v 456.022 1.21841 -15.6513 
v 456.082 1.10894 -15.4559 
v 455.512 1.21841 -15.6513 
v 455.579 1.39659 -15.781 
v 455.955 1.39659 -15.781 
v 455.767 1.75997 -15.7646 
v 456.276 -0.112409 -14.4411 
v 455.909 -0.112409 -14.4051 
v 455.879 -0.25997 -14.3695 
v 456.313 -0.25997 -14.4121 
v 455.275 -0.112409 -14.4354 
v 455.673 -0.25997 -14.368 
v 455.642 -0.112409 -14.4033 
v 455.238 -0.25997 -14.4061 
v 455.305 -0.112409 -14.784 
v 455.664 0.0533944 -14.7454 
v 455.672 -0.112409 -14.7518 
v 455.312 0.0533944 -14.7763 
v 456.242 -0.112409 -14.7893 
v 455.875 -0.112409 -14.7533 
v 455.883 0.0533944 -14.747 
v 456.235 0.0533944 -14.7815 
v 456.273 -0.25997 -14.8249 
v 455.838 -0.25997 -14.7823 
v 455.875 -0.112409 -14.7533 
v 456.242 -0.112409 -14.7893 
v 455.274 -0.25997 -14.8193 
v 455.672 -0.112409 -14.7518 
v 455.709 -0.25997 -14.7812 
v 455.305 -0.112409 -14.784 
v 455.635 0.0533944 -14.411 
v 455.672 -0.112409 -14.7518 
v 455.664 0.0533944 -14.7454 
v 455.642 -0.112409 -14.4033 
v 455.916 0.0533944 -14.4129 
v 455.875 -0.112409 -14.7533 
v 455.909 -0.112409 -14.4051 
v 455.883 0.0533944 -14.747 
v 455.642 -0.112409 -14.4033 
v 455.709 -0.25997 -14.7812 
v 455.672 -0.112409 -14.7518 
v 455.673 -0.25997 -14.368 
v 455.909 -0.112409 -14.4051 
v 455.838 -0.25997 -14.7823 
v 455.879 -0.25997 -14.3695 
v 455.875 -0.112409 -14.7533 
v 456.604 0.462765 -14.2098 
v 456.604 0.357134 -14.5957 
v 457.014 0.252702 -14.3034 
v 456.975 0.183402 -14.5957 
v 457.18 0.160463 -14.5261 
v 457.18 0.160463 -14.6652 
v 457.014 0.252702 -14.888 
v 456.604 0.462765 -14.9815 
v 454.929 0.462765 -14.2098 
v 454.52 0.252702 -14.3034 
v 454.929 0.357134 -14.5957 
v 454.558 0.183402 -14.5957 
v 454.353 0.160463 -14.5261 
v 454.353 0.160463 -14.6652 
v 454.52 0.252702 -14.888 
v 454.929 0.462765 -14.9815 

vn 0.015748 0.992126 -0.141732 
vn 0.0314961 0.992126 -0.141732 
vn 0.00787402 1 -0.0551181 
vn 0.00787402 1 -0.0472441 
vn 0.015748 1 -0.0629921 
vn 0.0472441 0.992126 -0.141732 
vn -0.015748 1 0.0314961 
vn -0.00787402 1 0.0314961 
vn 0.00787402 1 0.0393701 
vn 0 0 1 
vn 0 0 1 
vn 0 0 1 
vn 0 0 1 
vn 0 0 1 
vn 0 0 1 
vn 0 0 1 
vn 0 0 1 
vn -1 0 -0.0393701 
vn -1 -0.015748 -0.023622 
vn -1 -0.0314961 -0.0393701 
vn -1 0 -0.00787402 
vn -1 0 0 
vn -1 0.015748 0.00787402 
vn -1 0 -0.015748 
vn -1 0.023622 -0.0314961 
vn -1 0 0 
vn -1 0.023622 0 
vn -1 -0.015748 0 
vn 1 -0.00787402 -0.0393701 
vn 1 0 -0.0551181 
vn 1 -0.023622 -0.0551181 
vn 1 0 -0.023622 
vn 1 0 -0.00787402 
vn 1 0.00787402 0.00787402 
vn 1 0 -0.023622 
vn 1 0.015748 -0.0551181 
vn 1 0 0 
vn 1 0.023622 0 
vn 1 -0.015748 0 
vn -0.228346 -0.0708661 -0.968504 
vn -0.76378 0.598425 -0.251969 
vn -0.622047 0.740157 -0.251969 
vn -0.307087 -0.496063 -0.818898 
vn -0.968504 -0.102362 -0.228346 
vn -0.76378 0.598425 0.251969 
vn -0.622047 0.740157 0.251969 
vn -0.968504 -0.102362 0.228346 
vn -0.228346 -0.0708661 0.968504 
vn -0.307087 -0.496063 0.818898 
vn 0.228346 -0.0708661 -0.968504 
vn 0.76378 0.598425 -0.251969 
vn 0.307087 -0.496063 -0.818898 
vn 0.622047 0.740157 -0.251969 
vn 0.968504 -0.102362 -0.228346 
vn 0.76378 0.598425 0.251969 
vn 0.622047 0.740157 0.251969 
vn 0.968504 -0.102362 0.228346 
vn 0.228346 -0.0708661 0.968504 
vn 0.307087 -0.496063 0.818898 
vn 0 0 -1 
vn 0 0 -1 
vn 0 0 -1 
vn 0 0 -1 
vn 0 0 -1 
vn 0 0 -1 
vn 0 0 -1 
vn 0 0 -1 
vn -0.937008 0.0393701 -0.346457 
vn -0.96063 0 -0.291339 
vn -0.929134 0.0472441 -0.354331 
vn -0.795276 0.212598 -0.566929 
vn -0.795276 0.212598 -0.566929 
vn -0.614173 0.346457 -0.708661 
vn 0.929134 0.0472441 -0.354331 
vn 0.96063 0 -0.291339 
vn 0.937008 0.0393701 -0.346457 
vn 0.795276 0.212598 -0.566929 
vn 0.795276 0.212598 -0.566929 
vn 0.614173 0.346457 -0.708661 
vn 0 -1 0 
vn 0 -1 0 
vn 0 -1 0 
vn 0 -1 0 
vn 0 -1 0 
vn 0 -1 0 
vn 0 -1 0 
vn 0 -1 0 
vn 0.00787402 0.771654 0.637795 
vn 0 0.480315 0.874016 
vn -0.00787402 0.771654 0.637795 
vn -0.00787402 0.952756 0.307087 
vn 0.00787402 0.952756 0.307087 
vn -0.00787402 -1 0.0551181 
vn 0.00787402 -1 0.0551181 
vn -0.00787402 -1 0.0708661 
vn 0.015748 -1 0.0787402 
vn -0.023622 -1 0.0551181 
vn 0.00787402 -1 -0.015748 
vn -0.015748 -1 0.0472441 
vn 0 -1 -0.023622 
vn 0.015748 -0.992126 -0.125984 
vn 0 -1 -0.023622 
vn 0.00787402 -0.992126 -0.141732 
vn 0.023622 -0.984252 -0.188976 
vn 0.00787402 -0.984252 -0.15748 
vn 0.00787402 -0.976378 -0.204724 
vn 0 -0.976378 -0.228346 
vn 0.992126 0.0472441 -0.0944882 
vn 0.992126 0.0472441 -0.0944882 
vn 0.992126 0.0472441 -0.0944882 
vn 0.992126 0.0472441 -0.0944882 
vn -0.992126 0.0472441 -0.0866142 
vn -0.992126 0.0472441 -0.0866142 
vn -0.992126 0.0472441 -0.0866142 
vn -0.992126 0.0472441 -0.0866142 
vn 0.968504 0.228346 -0.0944882 
vn 0.968504 0.228346 -0.0944882 
vn 0.968504 0.228346 -0.0944882 
vn 0.968504 0.228346 -0.0944882 
vn -0.968504 0.228346 -0.0866142 
vn -0.968504 0.228346 -0.0866142 
vn -0.968504 0.228346 -0.0866142 
vn -0.968504 0.228346 -0.0866142 
vn 0.0944882 0.0393701 0.992126 
vn 0.0944882 0.0393701 0.992126 
vn 0.0944882 0.0393701 0.992126 
vn 0.0944882 0.0393701 0.992126 
vn -0.0866142 0.0393701 0.992126 
vn -0.0866142 0.0393701 0.992126 
vn -0.0866142 0.0393701 0.992126 
vn -0.0866142 0.0393701 0.992126 
vn 0 -0.874016 -0.488189 
vn 0 -0.787402 -0.614173 
vn 0 -0.874016 -0.488189 
vn 0 -0.787402 -0.614173 
vn 0 -0.291339 -0.96063 
vn 0 -0.291339 -0.96063 
vn 0 0.0472441 -1 
vn 0.0944882 0.212598 0.968504 
vn 0.0944882 0.212598 0.968504 
vn 0.0944882 0.212598 0.968504 
vn 0.0944882 0.212598 0.968504 
vn -0.0866142 0.212598 0.976378 
vn -0.0866142 0.212598 0.976378 
vn -0.0866142 0.212598 0.976378 
vn -0.0866142 0.212598 0.976378 
vn 0.0866142 0.0393701 -0.992126 
vn 0.0866142 0.0393701 -0.992126 
vn 0.0866142 0.0393701 -0.992126 
vn 0.0866142 0.0393701 -0.992126 
vn -0.0944882 0.0393701 -0.992126 
vn -0.0944882 0.0393701 -0.992126 
vn -0.0944882 0.0393701 -0.992126 
vn -0.0944882 0.0393701 -0.992126 
vn -0.0944882 0.212598 -0.968504 
vn -0.0944882 0.212598 -0.968504 
vn -0.0944882 0.212598 -0.968504 
vn -0.0944882 0.212598 -0.968504 
vn 0.0866142 0.212598 -0.976378 
vn 0.0866142 0.212598 -0.976378 
vn 0.0866142 0.212598 -0.976378 
vn 0.0866142 0.212598 -0.976378 
vn 0.992126 0.0472441 0.0866142 
vn 0.992126 0.0472441 0.0866142 
vn 0.992126 0.0472441 0.0866142 
vn 0.992126 0.0472441 0.0866142 
vn -0.992126 0.0472441 0.0944882 
vn -0.992126 0.0472441 0.0944882 
vn -0.992126 0.0472441 0.0944882 
vn -0.992126 0.0472441 0.0944882 
vn 0.968504 0.228346 0.0866142 
vn 0.968504 0.228346 0.0866142 
vn 0.968504 0.228346 0.0866142 
vn 0.968504 0.228346 0.0866142 
vn -0.968504 0.228346 0.0944882 
vn -0.968504 0.228346 0.0944882 
vn -0.968504 0.228346 0.0944882 
vn -0.968504 0.228346 0.0944882 
vn -0.401575 -0.88189 0.251969 
vn -0.417323 -0.905512 0 
vn -0.299213 -0.92126 0.251969 
vn -0.275591 -0.96063 0 
vn -0.165354 -0.968504 0.173228 
vn -0.165354 -0.968504 -0.173228 
vn -0.299213 -0.92126 -0.251969 
vn -0.401575 -0.88189 -0.251969 
vn 0.401575 -0.88189 0.251969 
vn 0.299213 -0.92126 0.251969 
vn 0.417323 -0.905512 0 
vn 0.275591 -0.96063 0 
vn 0.165354 -0.968504 0.173228 
vn 0.165354 -0.968504 -0.173228 
vn 0.299213 -0.92126 -0.251969 
vn 0.401575 -0.88189 -0.251969 

vt 0.362213 0.330025 
vt 0.356964 0.496741 
vt 0.205935 0.491441 
vt 0.169237 0.320271 
vt 0.245218 0.659681 
vt 0.352497 0.665405 
vt 0.013892 0.658002 
vt 0.017666 0.48936 
vt 0.017859 0.323063 
vt 0.0128972 0.679013 
vt 0.178442 0.674551 
vt 0.00560518 0.830667 
vt 0.176674 0.990373 
vt 0.0110722 0.988099 
vt 0.346529 0.832637 
vt 0.343084 0.981174 
vt 0.344713 0.681478 
vt 0.355903 0.171636 
vt 0.254673 0.012641 
vt 0.351848 0.017046 
vt 0.165985 0.169129 
vt 0.162319 0.013066 
vt 0.080291 0.022033 
vt 0.169237 0.320271 
vt 0.362213 0.330025 
vt 0.018462 0.183941 
vt 0.014968 0.042101 
vt 0.017859 0.323063 
vt 0.397846 0.673877 
vt 0.346529 0.832637 
vt 0.344713 0.681478 
vt 0.449497 0.823507 
vt 0.448657 0.671748 
vt 0.583687 0.679008 
vt 0.448501 0.969291 
vt 0.343084 0.981174 
vt 0.676623 0.83742 
vt 0.676495 0.697699 
vt 0.676366 0.976576 
vt 0.713586 0.614885 
vt 0.647781 0.538745 
vt 0.655549 0.651302 
vt 0.684101 0.530592 
vt 0.637251 0.49688 
vt 0.601024 0.53918 
vt 0.596029 0.652164 
vt 0.610598 0.497474 
vt 0.537121 0.617053 
vt 0.564492 0.53202 
vt 0.713586 0.614885 
vt 0.647781 0.538745 
vt 0.684101 0.530592 
vt 0.655549 0.651302 
vt 0.637251 0.49688 
vt 0.601024 0.53918 
vt 0.596029 0.652164 
vt 0.610598 0.497474 
vt 0.537121 0.617053 
vt 0.564492 0.53202 
vt 0.707272 0.182523 
vt 0.851696 0.019612 
vt 0.989469 0.182357 
vt 0.709917 0.015226 
vt 0.992848 0.014168 
vt 0.851785 0.345268 
vt 0.710056 0.349963 
vt 0.992703 0.350493 
vt 0.410664 0.424897 
vt 0.382577 0.378808 
vt 0.473975 0.373928 
vt 0.454109 0.456118 
vt 0.492995 0.425032 
vt 0.546249 0.475475 
vt 0.619695 0.374784 
vt 0.710987 0.380641 
vt 0.68243 0.426419 
vt 0.638619 0.457091 
vt 0.600083 0.425548 
vt 0.546249 0.475475 
vt 0.901369 0.916183 
vt 0.813021 0.84004 
vt 0.893507 0.833102 
vt 0.821116 0.925618 
vt 0.893507 0.833102 
vt 0.821116 0.925618 
vt 0.901369 0.916183 
vt 0.813044 0.840236 
vt 0.600083 0.425548 
vt 0.546249 0.475475 
vt 0.492995 0.425032 
vt 0.473975 0.373928 
vt 0.619695 0.374784 
vt 0.446358 0.183287 
vt 0.425227 0.34988 
vt 0.37072 0.183478 
vt 0.371095 0.351656 
vt 0.370517 0.015319 
vt 0.47667 0.348276 
vt 0.467107 0.016848 
vt 0.518679 0.183061 
vt 0.613751 0.349159 
vt 0.559311 0.018068 
vt 0.626817 0.182752 
vt 0.710056 0.349963 
vt 0.64196 0.016368 
vt 0.707272 0.182523 
vt 0.709917 0.015226 
vt 0.964389 0.773823 
vt 0.955391 0.834961 
vt 0.923212 0.834514 
vt 0.933036 0.765791 
vt 0.923212 0.834514 
vt 0.964389 0.773823 
vt 0.933036 0.765791 
vt 0.955391 0.834961 
vt 0.933036 0.765791 
vt 0.923212 0.834514 
vt 0.893507 0.833102 
vt 0.904609 0.757308 
vt 0.893507 0.833102 
vt 0.933036 0.765791 
vt 0.904609 0.757308 
vt 0.923212 0.834514 
vt 0.955391 0.834961 
vt 0.962322 0.902212 
vt 0.930436 0.908734 
vt 0.923212 0.834514 
vt 0.955391 0.834961 
vt 0.930436 0.908734 
vt 0.962322 0.902212 
vt 0.923212 0.834514 
vt 0.376388 0.650385 
vt 0.4942 0.603806 
vt 0.506577 0.650103 
vt 0.388564 0.604035 
vt 0.402461 0.558425 
vt 0.480105 0.558257 
vt 0.441121 0.483108 
vt 0.923212 0.834514 
vt 0.930436 0.908734 
vt 0.901369 0.916183 
vt 0.893507 0.833102 
vt 0.923212 0.834514 
vt 0.901369 0.916183 
vt 0.930436 0.908734 
vt 0.893507 0.833102 
vt 0.933036 0.765791 
vt 0.991562 0.710431 
vt 0.962256 0.697477 
vt 0.964389 0.773823 
vt 0.933036 0.765791 
vt 0.962256 0.697477 
vt 0.991562 0.710431 
vt 0.964389 0.773823 
vt 0.904609 0.757308 
vt 0.937923 0.679496 
vt 0.962256 0.697477 
vt 0.933036 0.765791 
vt 0.904609 0.757308 
vt 0.962256 0.697477 
vt 0.937923 0.679496 
vt 0.933036 0.765791 
vt 0.962322 0.902212 
vt 0.953234 0.974424 
vt 0.983516 0.963033 
vt 0.930436 0.908734 
vt 0.962322 0.902212 
vt 0.953234 0.974424 
vt 0.930436 0.908734 
vt 0.983516 0.963033 
vt 0.930436 0.908734 
vt 0.928145 0.990732 
vt 0.953234 0.974424 
vt 0.901369 0.916183 
vt 0.930436 0.908734 
vt 0.928145 0.990732 
vt 0.901369 0.916183 
vt 0.953234 0.974424 
vt 0.72857 0.500109 
vt 0.803383 0.507542 
vt 0.74713 0.586508 
vt 0.803383 0.583936 
vt 0.790185 0.622085 
vt 0.81658 0.622085 
vt 0.859636 0.586508 
vt 0.878196 0.500109 
vt 0.72857 0.500109 
vt 0.74713 0.586508 
vt 0.803383 0.507542 
vt 0.803383 0.583936 
vt 0.790185 0.622085 
vt 0.81658 0.622085 
vt 0.859636 0.586508 
vt 0.878196 0.500109 

usemtl Pet1Mtl

f 1/1/1 2/2/2 3/3/3 
f 1/1/1 3/3/3 4/4/4 
f 2/2/2 5/5/5 3/3/3 
f 2/2/2 6/6/6 5/5/5 
f 5/5/5 7/7/7 3/3/3 
f 3/3/3 7/7/7 8/8/8 
f 3/3/3 8/8/8 4/4/4 
f 4/4/4 8/8/8 9/9/9 
f 10/10/10 11/11/11 12/12/12 
f 13/13/13 12/12/12 11/11/11 
f 12/12/12 13/13/13 14/14/14 
f 15/15/15 13/13/13 11/11/11 
f 13/13/13 15/15/15 16/16/16 
f 11/11/11 17/17/17 15/15/15 
f 18/18/18 19/19/19 20/20/20 
f 19/19/19 18/18/18 21/21/21 
f 19/19/19 21/21/21 22/22/22 
f 23/23/23 22/22/22 21/21/21 
f 18/18/18 24/24/24 21/21/21 
f 18/18/18 25/25/25 24/24/24 
f 23/23/23 21/21/21 26/26/26 
f 24/24/24 26/26/26 21/21/21 
f 23/23/23 26/26/26 27/27/27 
f 26/26/26 24/24/24 28/28/28 
f 29/29/29 30/30/30 31/31/31 
f 30/30/30 29/29/29 32/32/32 
f 29/29/29 33/33/33 32/32/32 
f 34/34/34 32/32/32 33/33/33 
f 35/35/35 30/30/30 32/32/32 
f 30/30/30 35/35/35 36/36/36 
f 32/32/32 34/34/34 37/37/37 
f 32/32/32 37/37/37 35/35/35 
f 34/34/34 38/38/38 37/37/37 
f 35/35/35 37/37/37 39/39/39 
f 40/40/40 41/41/41 42/42/42 
f 41/41/41 40/40/40 43/43/43 
f 44/44/44 41/41/41 43/43/43 
f 45/45/45 42/42/42 41/41/41 
f 44/44/44 45/45/45 41/41/41 
f 46/46/46 42/42/42 45/45/45 
f 45/45/45 44/44/44 47/47/47 
f 48/48/48 46/46/46 45/45/45 
f 49/49/49 45/45/45 47/47/47 
f 49/49/49 48/48/48 45/45/45 
f 50/50/50 51/51/51 52/52/52 
f 51/51/51 50/50/50 53/53/53 
f 54/54/54 52/52/52 51/51/51 
f 55/55/55 51/51/51 53/53/53 
f 55/55/55 54/54/54 51/51/51 
f 56/56/56 55/55/55 53/53/53 
f 54/54/54 55/55/55 57/57/57 
f 55/55/55 56/56/56 58/58/58 
f 59/59/59 57/57/57 55/55/55 
f 55/55/55 58/58/58 59/59/59 
f 60/60/60 61/61/61 62/62/62 
f 61/61/61 60/60/60 63/63/63 
f 61/61/61 64/64/64 62/62/62 
f 65/65/65 60/60/60 62/62/62 
f 60/60/60 65/65/65 66/66/66 
f 65/65/65 62/62/62 67/67/67 
f 68/68/68 69/69/69 70/70/70 
f 68/68/68 70/70/70 71/71/71 
f 71/71/71 70/70/70 72/72/72 
f 71/71/71 72/72/72 73/73/73 
f 74/74/74 75/75/75 76/76/76 
f 77/77/77 74/74/74 76/76/76 
f 74/74/74 77/77/77 78/78/78 
f 78/78/78 77/77/77 79/79/79 
f 80/80/80 81/81/81 82/82/82 
f 81/81/81 80/80/80 83/83/83 
f 84/84/84 85/85/85 86/86/86 
f 85/85/85 84/84/84 87/87/87 
f 88/88/88 89/89/89 90/90/90 
f 91/91/91 88/88/88 90/90/90 
f 91/91/91 92/92/92 88/88/88 
f 93/93/93 94/94/94 95/95/95 
f 96/96/96 95/95/95 94/94/94 
f 95/95/95 97/97/97 93/93/93 
f 94/94/94 93/93/93 98/98/98 
f 99/99/99 93/93/93 97/97/97 
f 100/100/100 98/98/98 93/93/93 
f 93/93/93 99/99/99 100/100/100 
f 98/98/98 100/100/100 101/101/101 
f 102/102/102 100/100/100 99/99/99 
f 100/100/100 103/103/103 101/101/101 
f 100/100/100 102/102/102 103/103/103 
f 101/101/101 103/103/103 104/104/104 
f 105/105/105 103/103/103 102/102/102 
f 106/106/106 104/104/104 103/103/103 
f 103/103/103 105/105/105 106/106/106 
f 107/107/107 106/106/106 105/105/105 
f 108/108/108 109/109/109 110/110/110 
f 110/110/110 111/111/111 108/108/108 
f 112/112/112 113/113/113 114/114/114 
f 113/113/113 112/112/112 115/115/115 
f 116/116/116 117/117/117 118/118/118 
f 118/118/118 119/119/119 116/116/116 
f 120/120/120 121/121/121 122/122/122 
f 121/121/121 120/120/120 123/123/123 
f 124/124/124 125/125/125 126/126/126 
f 124/124/124 126/126/126 127/127/127 
f 128/128/128 129/129/129 130/130/130 
f 129/129/129 128/128/128 131/131/131 
f 132/132/132 133/133/133 134/134/134 
f 133/133/133 132/132/132 135/135/135 
f 136/136/136 133/133/133 135/135/135 
f 133/133/133 136/136/136 137/137/137 
f 137/137/137 136/136/136 138/138/138 
f 139/139/139 140/140/140 141/141/141 
f 141/141/141 142/142/142 139/139/139 
f 143/143/143 144/144/144 145/145/145 
f 144/144/144 143/143/143 146/146/146 
f 147/147/147 148/148/148 149/149/149 
f 148/148/148 147/147/147 150/150/150 
f 151/151/151 152/152/152 153/153/153 
f 151/151/151 153/153/153 154/154/154 
f 155/155/155 156/156/156 157/157/157 
f 155/155/155 157/157/157 158/158/158 
f 159/159/159 160/160/160 161/161/161 
f 160/160/160 159/159/159 162/162/162 
f 163/163/163 164/164/164 165/165/165 
f 164/164/164 163/163/163 166/166/166 
f 167/167/167 168/168/168 169/169/169 
f 168/168/168 167/167/167 170/170/170 
f 171/171/171 172/172/172 173/173/173 
f 172/172/172 171/171/171 174/174/174 
f 175/175/175 176/176/176 177/177/177 
f 176/176/176 175/175/175 178/178/178 
f 179/179/179 180/180/180 181/181/181 
f 181/181/181 180/180/180 182/182/182 
f 182/182/182 183/183/183 181/181/181 
f 182/182/182 184/184/184 183/183/183 
f 182/182/182 185/185/185 184/184/184 
f 182/182/182 180/180/180 185/185/185 
f 180/180/180 186/186/186 185/185/185 
f 187/187/187 188/188/188 189/189/189 
f 188/188/188 190/190/190 189/189/189 
f 190/190/190 188/188/188 191/191/191 
f 190/190/190 191/191/191 192/192/192 
f 190/190/190 192/192/192 193/193/193 
f 193/193/193 189/189/189 190/190/190 
f 189/189/189 193/193/193 194/194/194 

